#N canvas 569 208 790 340 10;
#N canvas 965 298 697 300 block 0;
#X obj 19 228 declicker~;
#X floatatom 86 263 5 0 0 0 - - -, f 5;
#X obj 20 263 outlet~;
#X obj 18 81 inlet~;
#X obj 73 81 inlet;
#X obj 40 38 block~ 8192 1;
#X text 85 121 adjust block size to your need;
#X text 86 136 but don't forget \, as always \, the bigger block \,
the better the result and bigger latency.;
#X connect 0 0 2 0;
#X connect 3 0 0 0;
#X connect 4 0 0 0;
#X restore 185 191 pd block;
#X obj 186 259 dac~ 1 2;
#X obj 156 72 readsf~ 4;
#X msg 156 23 open capteur-20170228_121416.wav \, 1;
#X msg 166 44 0;
#X obj 34 62 loadbang;
#X msg 34 84 \; pd dsp 1;
#N canvas 968 285 450 300 delay 0;
#X obj 198 81 inlet~;
#X obj 308 31 block~ 8192 1;
#X obj 199 133 outlet~;
#X connect 0 0 2 0;
#X restore 255 191 pd delay;
#X msg 259 99 threshold \$1;
#X floatatom 259 81 5 0 0 0 - - -, f 5;
#X floatatom 269 121 5 0 0 0 - - -, f 5;
#X msg 269 139 width \$1;
#X text 299 80 threshold (lower is more sensitive \, default 200);
#X text 310 122 click width (higher is more sensitive \, default 20)
;
#X connect 0 0 1 0;
#X connect 2 2 0 0;
#X connect 2 2 7 0;
#X connect 3 0 2 0;
#X connect 4 0 2 0;
#X connect 5 0 6 0;
#X connect 7 0 1 1;
#X connect 8 0 0 1;
#X connect 9 0 8 0;
#X connect 10 0 11 0;
#X connect 11 0 0 1;
