#N canvas 530 106 954 893 10;
#X text 516 17 This is a port of Luciano Dato's Noise Repellent LV2
plugin.;
#X text 517 36 The original code have been found here : https://github.com/lucianodato/noise-repellent
;
#X obj 127 829 dac~ 1 2;
#X msg 220 120 noise_capture \$1;
#X obj 220 96 tgl 15 0 empty empty empty 17 7 0 10 -262144 -1 -1 0
1;
#X obj 240 196 tgl 15 0 empty empty empty 17 7 0 10 -262144 -1 -1 0
1;
#X msg 240 230 noise_listen \$1;
#X msg 250 280 reduction_amount \$1;
#X floatatom 250 256 5 0 48 0 - - -, f 5;
#X msg 264 330 snr_influence \$1;
#X text 570 138 ported to Pd by Antoine Villeret - 2017;
#X msg 272 380 time_smoothing \$1;
#X msg 282 430 frequency_smoothing \$1;
#X obj 230 146 tgl 15 0 empty empty empty 17 7 0 10 -262144 -1 -1 0
1;
#X msg 230 170 noise_auto_capture \$1;
#X msg 204 74 reset_print;
#X obj 204 688 t a;
#X obj 138 796 *~ 1;
#X floatatom 163 746 5 0 0 0 - - -, f 5;
#X obj 163 765 dbtorms;
#N canvas 0 780 570 300 reblock 0;
#X obj 203 146 denoiser2~;
#X obj 202 70 inlet~;
#X obj 272 70 inlet;
#X obj 203 218 outlet~;
#X obj 318 208 block~ 2048 1 1;
#X connect 0 0 3 0;
#X connect 1 0 0 0;
#X connect 2 0 0 0;
#X restore 137 720 pd reblock;
#N canvas 53 337 566 625 noisysound 0;
#X obj 61 424 noise~;
#X obj 165 424 cos~;
#X obj 165 399 +~;
#X obj 165 354 phasor~;
#X obj 240 322 osc~;
#X obj 240 301 t a;
#X obj 165 330 * 0.5;
#X obj 165 496 *~ 0.01;
#X floatatom 240 275 5 0 0 0 - - -, f 5;
#X obj 164 556 outlet~;
#X obj 240 237 mtof;
#X obj 293 243 sel 0;
#X msg 293 330 0 400;
#X msg 332 292 \$1 100;
#X obj 298 378 line~;
#X obj 297 407 dbtorms~;
#X obj 165 466 *~;
#X obj 240 99 tgl 15 0 empty empty empty 17 7 0 10 -262144 -1 -1 1
1;
#X floatatom 389 362 5 0 0 0 - - -, f 5;
#X obj 240 127 metro 250;
#X obj 240 72 inlet;
#X obj 240 215 makenote 110 200;
#X obj 240 149 random 100;
#X obj 240 171 + 20;
#X obj 241 343 *~ 2;
#X obj 320 149 random 100;
#X obj 320 171 - 50;
#X obj 320 193 / 2;
#X obj 107 223 inlet noise;
#X obj 107 245 * 0.01;
#X obj 61 472 lop~ 4000;
#X obj 61 446 *~;
#X connect 0 0 31 0;
#X connect 1 0 16 0;
#X connect 2 0 1 0;
#X connect 3 0 2 0;
#X connect 4 0 24 0;
#X connect 5 0 4 0;
#X connect 5 0 6 0;
#X connect 6 0 3 0;
#X connect 7 0 9 0;
#X connect 8 0 5 0;
#X connect 10 0 8 0;
#X connect 11 0 12 0;
#X connect 11 1 13 0;
#X connect 11 1 18 0;
#X connect 12 0 14 0;
#X connect 13 0 14 0;
#X connect 14 0 15 0;
#X connect 15 0 16 1;
#X connect 16 0 7 0;
#X connect 17 0 19 0;
#X connect 19 0 22 0;
#X connect 19 0 25 0;
#X connect 20 0 17 0;
#X connect 21 0 10 0;
#X connect 21 1 11 0;
#X connect 22 0 23 0;
#X connect 23 0 21 0;
#X connect 24 0 2 1;
#X connect 25 0 26 0;
#X connect 26 0 27 0;
#X connect 27 0 24 1;
#X connect 28 0 29 0;
#X connect 29 0 31 1;
#X connect 30 0 9 0;
#X connect 31 0 30 0;
#X restore 24 644 pd noisysound;
#X obj 112 620 tgl 15 0 empty empty empty 17 7 0 10 -262144 -1 -1 1
1;
#X msg 87 293 \; pd dsp \$1;
#X obj 87 265 tgl 15 0 empty empty empty 17 7 0 10 -262144 -1 -1 1
1;
#X text 240 96 Capture noise;
#X text 250 147 Automatically capture noise;
#X text 261 196 Listen noise (part of the sound which is substracted
from input signal);
#X text 206 53 reset noise footprint;
#X text 97 594 add some synth notes;
#X obj 24 618 tgl 15 0 empty empty empty 17 7 0 10 -262144 -1 -1 1
1;
#X text 12 597 noise;
#X msg 306 528 reduction_strenght \$1;
#X msg 296 477 residual_whitening \$1;
#X obj 306 508 nbx 5 14 0.5 6 0 1 empty empty empty 0 -8 0 10 -262144
-1 -1 2.84 256;
#X text 362 509 Strenght of reduction (0.5 - 6 \, default 1.);
#X obj 296 458 nbx 5 14 0 1 0 1 empty empty empty 0 -8 0 10 -262144
-1 -1 0.38 256;
#X text 351 457 Noise Whitening (0. - 1 \, default 0.);
#X text 337 410 Frequency smoothing (0. - 20 \, default 0.);
#X obj 282 410 nbx 5 14 0 1 0 1 empty empty empty 0 -8 0 10 -262144
-1 -1 0 256;
#X obj 272 358 nbx 5 14 0 1 0 1 empty empty empty 0 -8 0 10 -262144
-1 -1 0 256;
#X text 327 357 Time smoothing (0. - 1 \, default 0.);
#X text 323 308 SNR influence (0. - 3 \, default 0.);
#X obj 264 308 nbx 5 14 0 3 0 1 empty empty empty 0 -8 0 10 -262144
-1 -1 1.09 256;
#X text 517 71 Instructions: Send a section of noise only and turn
on noise capture for one second or two to learn the noise profile and
then turn it off. Then you can now adjust the reduction.;
#X text 290 249 Attenuation level in dB \, 0 means no attenuation.
(0 - 48 \, default 0.);
#X msg 316 553 get noise-profil-p2 noise-profil-mag;
#X obj 499 833 table noise-profil-p2 1025;
#X obj 499 853 table noise-profil-mag 1025;
#X obj 499 813 soundfiler;
#X msg 499 710 read noise-profil-p2.wav noise-profil-p2 \, read noise-profil-mag.wav
noise-profil-mag;
#X msg 509 746 write -wave noise-profil-p2.wav noise-profil-p2 \, write
-wave noise-profil-mag.wav noise-profil-mag;
#X obj 467 664 t b b;
#X obj 467 641 bng 15 250 50 0 empty empty empty 17 7 0 10 -262144
-1 -1;
#X msg 316 583 set noise-profil-p2 noise-profil-mag;
#X obj 467 617 r pd-dsp-started;
#X text 583 550 save profil to arrays;
#X text 583 580 load profil from arrays;
#X connect 3 0 16 0;
#X connect 4 0 3 0;
#X connect 5 0 6 0;
#X connect 6 0 16 0;
#X connect 7 0 16 0;
#X connect 8 0 7 0;
#X connect 9 0 16 0;
#X connect 11 0 16 0;
#X connect 12 0 16 0;
#X connect 13 0 14 0;
#X connect 14 0 16 0;
#X connect 15 0 16 0;
#X connect 16 0 20 1;
#X connect 17 0 2 0;
#X connect 17 0 2 1;
#X connect 18 0 19 0;
#X connect 19 0 17 1;
#X connect 20 0 17 0;
#X connect 21 0 20 0;
#X connect 22 0 21 1;
#X connect 24 0 23 0;
#X connect 30 0 21 0;
#X connect 32 0 16 0;
#X connect 33 0 16 0;
#X connect 34 0 32 0;
#X connect 36 0 33 0;
#X connect 39 0 12 0;
#X connect 40 0 11 0;
#X connect 43 0 9 0;
#X connect 46 0 16 0;
#X connect 50 0 49 0;
#X connect 51 0 49 0;
#X connect 52 0 54 0;
#X connect 52 1 50 0;
#X connect 53 0 52 0;
#X connect 54 0 16 0;
#X connect 55 0 53 0;
